<mxfile host="app.diagrams.net" modified="2023-04-12T16:35:19.552Z" agent="Mozilla/5.0 (X11; Ubuntu; Linux x86_64; rv:109.0) Gecko/20100101 Firefox/111.0" etag="KCZfRg6zY5lCQkJlubPQ" version="21.1.5" type="device">
  <diagram id="R2lEEEUBdFMjLlhIrx00" name="Page-1">
    <mxGraphModel dx="1434" dy="722" grid="1" gridSize="10" guides="1" tooltips="1" connect="1" arrows="1" fold="1" page="1" pageScale="1" pageWidth="850" pageHeight="1100" math="0" shadow="0" extFonts="Permanent Marker^https://fonts.googleapis.com/css?family=Permanent+Marker">
      <root>
        <mxCell id="0" />
        <mxCell id="1" parent="0" />
        <mxCell id="VL071i1AqDFCpZDAVw9u-1" value="" style="rounded=1;whiteSpace=wrap;html=1;" parent="1" vertex="1">
          <mxGeometry x="30" y="105" width="530" height="305" as="geometry" />
        </mxCell>
        <object label="accounts" email="email&#xa;test" id="C-vyLk0tnHw3VtMMgP7b-23">
          <mxCell style="shape=table;startSize=30;container=1;collapsible=1;childLayout=tableLayout;fixedRows=1;rowLines=0;fontStyle=1;align=center;resizeLast=1;" parent="1" vertex="1">
            <mxGeometry x="85" y="125" width="435" height="271" as="geometry">
              <mxRectangle x="85" y="80" width="80" height="30" as="alternateBounds" />
            </mxGeometry>
          </mxCell>
        </object>
        <mxCell id="C-vyLk0tnHw3VtMMgP7b-24" value="" style="shape=partialRectangle;collapsible=0;dropTarget=0;pointerEvents=0;fillColor=none;points=[[0,0.5],[1,0.5]];portConstraint=eastwest;top=0;left=0;right=0;bottom=1;" parent="C-vyLk0tnHw3VtMMgP7b-23" vertex="1">
          <mxGeometry y="30" width="435" height="30" as="geometry" />
        </mxCell>
        <mxCell id="C-vyLk0tnHw3VtMMgP7b-25" value="PK" style="shape=partialRectangle;overflow=hidden;connectable=0;fillColor=none;top=0;left=0;bottom=0;right=0;fontStyle=1;" parent="C-vyLk0tnHw3VtMMgP7b-24" vertex="1">
          <mxGeometry width="30" height="30" as="geometry">
            <mxRectangle width="30" height="30" as="alternateBounds" />
          </mxGeometry>
        </mxCell>
        <mxCell id="C-vyLk0tnHw3VtMMgP7b-26" value="account_id varchar PRIMARY KEY UNIQUE NOT NULL" style="shape=partialRectangle;overflow=hidden;connectable=0;fillColor=none;top=0;left=0;bottom=0;right=0;align=left;spacingLeft=6;fontStyle=1;" parent="C-vyLk0tnHw3VtMMgP7b-24" vertex="1">
          <mxGeometry x="30" width="405" height="30" as="geometry">
            <mxRectangle width="405" height="30" as="alternateBounds" />
          </mxGeometry>
        </mxCell>
        <mxCell id="C-vyLk0tnHw3VtMMgP7b-27" value="" style="shape=partialRectangle;collapsible=0;dropTarget=0;pointerEvents=0;fillColor=none;points=[[0,0.5],[1,0.5]];portConstraint=eastwest;top=0;left=0;right=0;bottom=0;" parent="C-vyLk0tnHw3VtMMgP7b-23" vertex="1">
          <mxGeometry y="60" width="435" height="31" as="geometry" />
        </mxCell>
        <mxCell id="C-vyLk0tnHw3VtMMgP7b-28" value="" style="shape=partialRectangle;overflow=hidden;connectable=0;fillColor=none;top=0;left=0;bottom=0;right=0;" parent="C-vyLk0tnHw3VtMMgP7b-27" vertex="1">
          <mxGeometry width="30" height="31" as="geometry">
            <mxRectangle width="30" height="31" as="alternateBounds" />
          </mxGeometry>
        </mxCell>
        <mxCell id="C-vyLk0tnHw3VtMMgP7b-29" value="username varchar(50)  UNIQUE NOT NULL" style="shape=partialRectangle;overflow=hidden;connectable=0;fillColor=none;top=0;left=0;bottom=0;right=0;align=left;spacingLeft=6;fontSize=13;" parent="C-vyLk0tnHw3VtMMgP7b-27" vertex="1">
          <mxGeometry x="30" width="405" height="31" as="geometry">
            <mxRectangle width="405" height="31" as="alternateBounds" />
          </mxGeometry>
        </mxCell>
        <mxCell id="VL071i1AqDFCpZDAVw9u-34" style="shape=partialRectangle;collapsible=0;dropTarget=0;pointerEvents=0;fillColor=none;points=[[0,0.5],[1,0.5]];portConstraint=eastwest;top=0;left=0;right=0;bottom=0;" parent="C-vyLk0tnHw3VtMMgP7b-23" vertex="1">
          <mxGeometry y="91" width="435" height="30" as="geometry" />
        </mxCell>
        <mxCell id="VL071i1AqDFCpZDAVw9u-35" style="shape=partialRectangle;overflow=hidden;connectable=0;fillColor=none;top=0;left=0;bottom=0;right=0;" parent="VL071i1AqDFCpZDAVw9u-34" vertex="1">
          <mxGeometry width="30" height="30" as="geometry">
            <mxRectangle width="30" height="30" as="alternateBounds" />
          </mxGeometry>
        </mxCell>
        <mxCell id="VL071i1AqDFCpZDAVw9u-36" value="password varchar NOT NULL" style="shape=partialRectangle;overflow=hidden;connectable=0;fillColor=none;top=0;left=0;bottom=0;right=0;align=left;spacingLeft=6;fontSize=13;" parent="VL071i1AqDFCpZDAVw9u-34" vertex="1">
          <mxGeometry x="30" width="405" height="30" as="geometry">
            <mxRectangle width="405" height="30" as="alternateBounds" />
          </mxGeometry>
        </mxCell>
        <mxCell id="OKpWDmHDf1I66epjjTxF-31" style="shape=partialRectangle;collapsible=0;dropTarget=0;pointerEvents=0;fillColor=none;points=[[0,0.5],[1,0.5]];portConstraint=eastwest;top=0;left=0;right=0;bottom=0;strokeColor=default;" parent="C-vyLk0tnHw3VtMMgP7b-23" vertex="1">
          <mxGeometry y="121" width="435" height="30" as="geometry" />
        </mxCell>
        <mxCell id="OKpWDmHDf1I66epjjTxF-32" value="" style="shape=partialRectangle;overflow=hidden;connectable=0;fillColor=none;top=0;left=0;bottom=0;right=0;fontStyle=1" parent="OKpWDmHDf1I66epjjTxF-31" vertex="1">
          <mxGeometry width="30" height="30" as="geometry">
            <mxRectangle width="30" height="30" as="alternateBounds" />
          </mxGeometry>
        </mxCell>
        <mxCell id="OKpWDmHDf1I66epjjTxF-33" value="email varchar NOT NULL" style="shape=partialRectangle;overflow=hidden;connectable=0;fillColor=none;top=0;left=0;bottom=0;right=0;align=left;spacingLeft=6;fontSize=13;" parent="OKpWDmHDf1I66epjjTxF-31" vertex="1">
          <mxGeometry x="30" width="405" height="30" as="geometry">
            <mxRectangle width="405" height="30" as="alternateBounds" />
          </mxGeometry>
        </mxCell>
        <mxCell id="OKpWDmHDf1I66epjjTxF-34" style="shape=partialRectangle;collapsible=0;dropTarget=0;pointerEvents=0;fillColor=none;points=[[0,0.5],[1,0.5]];portConstraint=eastwest;top=0;left=0;right=0;bottom=0;" parent="C-vyLk0tnHw3VtMMgP7b-23" vertex="1">
          <mxGeometry y="151" width="435" height="30" as="geometry" />
        </mxCell>
        <mxCell id="OKpWDmHDf1I66epjjTxF-35" value="" style="shape=partialRectangle;overflow=hidden;connectable=0;fillColor=none;top=0;left=0;bottom=0;right=0;fontStyle=1" parent="OKpWDmHDf1I66epjjTxF-34" vertex="1">
          <mxGeometry width="30" height="30" as="geometry">
            <mxRectangle width="30" height="30" as="alternateBounds" />
          </mxGeometry>
        </mxCell>
        <mxCell id="OKpWDmHDf1I66epjjTxF-36" value="expiration_date date NOT NULL" style="shape=partialRectangle;overflow=hidden;connectable=0;fillColor=none;top=0;left=0;bottom=0;right=0;align=left;spacingLeft=6;fontSize=13;" parent="OKpWDmHDf1I66epjjTxF-34" vertex="1">
          <mxGeometry x="30" width="405" height="30" as="geometry">
            <mxRectangle width="405" height="30" as="alternateBounds" />
          </mxGeometry>
        </mxCell>
        <mxCell id="OKpWDmHDf1I66epjjTxF-37" style="shape=partialRectangle;collapsible=0;dropTarget=0;pointerEvents=0;fillColor=none;points=[[0,0.5],[1,0.5]];portConstraint=eastwest;top=0;left=0;right=0;bottom=0;" parent="C-vyLk0tnHw3VtMMgP7b-23" vertex="1">
          <mxGeometry y="181" width="435" height="30" as="geometry" />
        </mxCell>
        <mxCell id="OKpWDmHDf1I66epjjTxF-38" style="shape=partialRectangle;overflow=hidden;connectable=0;fillColor=none;top=0;left=0;bottom=0;right=0;" parent="OKpWDmHDf1I66epjjTxF-37" vertex="1">
          <mxGeometry width="30" height="30" as="geometry">
            <mxRectangle width="30" height="30" as="alternateBounds" />
          </mxGeometry>
        </mxCell>
        <mxCell id="OKpWDmHDf1I66epjjTxF-39" value="is_account_non_locked boolean NOT NULL" style="shape=partialRectangle;overflow=hidden;connectable=0;fillColor=none;top=0;left=0;bottom=0;right=0;align=left;spacingLeft=6;fontSize=13;" parent="OKpWDmHDf1I66epjjTxF-37" vertex="1">
          <mxGeometry x="30" width="405" height="30" as="geometry">
            <mxRectangle width="405" height="30" as="alternateBounds" />
          </mxGeometry>
        </mxCell>
        <mxCell id="OKpWDmHDf1I66epjjTxF-40" style="shape=partialRectangle;collapsible=0;dropTarget=0;pointerEvents=0;fillColor=none;points=[[0,0.5],[1,0.5]];portConstraint=eastwest;top=0;left=0;right=0;bottom=0;" parent="C-vyLk0tnHw3VtMMgP7b-23" vertex="1">
          <mxGeometry y="211" width="435" height="30" as="geometry" />
        </mxCell>
        <mxCell id="OKpWDmHDf1I66epjjTxF-41" style="shape=partialRectangle;overflow=hidden;connectable=0;fillColor=none;top=0;left=0;bottom=0;right=0;" parent="OKpWDmHDf1I66epjjTxF-40" vertex="1">
          <mxGeometry width="30" height="30" as="geometry">
            <mxRectangle width="30" height="30" as="alternateBounds" />
          </mxGeometry>
        </mxCell>
        <mxCell id="OKpWDmHDf1I66epjjTxF-42" value="credentials_expiration_date date NOT NULL" style="shape=partialRectangle;overflow=hidden;connectable=0;fillColor=none;top=0;left=0;bottom=0;right=0;align=left;spacingLeft=6;fontSize=13;" parent="OKpWDmHDf1I66epjjTxF-40" vertex="1">
          <mxGeometry x="30" width="405" height="30" as="geometry">
            <mxRectangle width="405" height="30" as="alternateBounds" />
          </mxGeometry>
        </mxCell>
        <mxCell id="OKpWDmHDf1I66epjjTxF-43" style="shape=partialRectangle;collapsible=0;dropTarget=0;pointerEvents=0;fillColor=none;points=[[0,0.5],[1,0.5]];portConstraint=eastwest;top=0;left=0;right=0;bottom=0;" parent="C-vyLk0tnHw3VtMMgP7b-23" vertex="1">
          <mxGeometry y="241" width="435" height="30" as="geometry" />
        </mxCell>
        <mxCell id="OKpWDmHDf1I66epjjTxF-44" style="shape=partialRectangle;overflow=hidden;connectable=0;fillColor=none;top=0;left=0;bottom=0;right=0;" parent="OKpWDmHDf1I66epjjTxF-43" vertex="1">
          <mxGeometry width="30" height="30" as="geometry">
            <mxRectangle width="30" height="30" as="alternateBounds" />
          </mxGeometry>
        </mxCell>
        <mxCell id="OKpWDmHDf1I66epjjTxF-45" value="is_account_enabled boolean NOT NULL" style="shape=partialRectangle;overflow=hidden;connectable=0;fillColor=none;top=0;left=0;bottom=0;right=0;align=left;spacingLeft=6;fontSize=13;" parent="OKpWDmHDf1I66epjjTxF-43" vertex="1">
          <mxGeometry x="30" width="405" height="30" as="geometry">
            <mxRectangle width="405" height="30" as="alternateBounds" />
          </mxGeometry>
        </mxCell>
        <mxCell id="aKT1de0LB3l2bq885Tbr-62" value="" style="rounded=1;whiteSpace=wrap;html=1;" vertex="1" parent="1">
          <mxGeometry x="30" y="730" width="530" height="130" as="geometry" />
        </mxCell>
        <object label="genres" email="email&#xa;test" id="aKT1de0LB3l2bq885Tbr-63">
          <mxCell style="shape=table;startSize=30;container=1;collapsible=1;childLayout=tableLayout;fixedRows=1;rowLines=0;fontStyle=1;align=center;resizeLast=1;" vertex="1" parent="1">
            <mxGeometry x="85" y="749.5" width="435" height="91" as="geometry">
              <mxRectangle x="85" y="80" width="80" height="30" as="alternateBounds" />
            </mxGeometry>
          </mxCell>
        </object>
        <mxCell id="aKT1de0LB3l2bq885Tbr-64" value="" style="shape=partialRectangle;collapsible=0;dropTarget=0;pointerEvents=0;fillColor=none;points=[[0,0.5],[1,0.5]];portConstraint=eastwest;top=0;left=0;right=0;bottom=1;" vertex="1" parent="aKT1de0LB3l2bq885Tbr-63">
          <mxGeometry y="30" width="435" height="30" as="geometry" />
        </mxCell>
        <mxCell id="aKT1de0LB3l2bq885Tbr-65" value="PK" style="shape=partialRectangle;overflow=hidden;connectable=0;fillColor=none;top=0;left=0;bottom=0;right=0;fontStyle=1;" vertex="1" parent="aKT1de0LB3l2bq885Tbr-64">
          <mxGeometry width="30" height="30" as="geometry">
            <mxRectangle width="30" height="30" as="alternateBounds" />
          </mxGeometry>
        </mxCell>
        <mxCell id="aKT1de0LB3l2bq885Tbr-66" value="authority_id varchar PRIMARY KEY UNIQUE NOT NULL" style="shape=partialRectangle;overflow=hidden;connectable=0;fillColor=none;top=0;left=0;bottom=0;right=0;align=left;spacingLeft=6;fontStyle=1;" vertex="1" parent="aKT1de0LB3l2bq885Tbr-64">
          <mxGeometry x="30" width="405" height="30" as="geometry">
            <mxRectangle width="405" height="30" as="alternateBounds" />
          </mxGeometry>
        </mxCell>
        <mxCell id="aKT1de0LB3l2bq885Tbr-67" value="" style="shape=partialRectangle;collapsible=0;dropTarget=0;pointerEvents=0;fillColor=none;points=[[0,0.5],[1,0.5]];portConstraint=eastwest;top=0;left=0;right=0;bottom=0;" vertex="1" parent="aKT1de0LB3l2bq885Tbr-63">
          <mxGeometry y="60" width="435" height="31" as="geometry" />
        </mxCell>
        <mxCell id="aKT1de0LB3l2bq885Tbr-68" value="" style="shape=partialRectangle;overflow=hidden;connectable=0;fillColor=none;top=0;left=0;bottom=0;right=0;" vertex="1" parent="aKT1de0LB3l2bq885Tbr-67">
          <mxGeometry width="30" height="31" as="geometry">
            <mxRectangle width="30" height="31" as="alternateBounds" />
          </mxGeometry>
        </mxCell>
        <mxCell id="aKT1de0LB3l2bq885Tbr-69" value="authority varchar(50) UNIQUE NOT NULL" style="shape=partialRectangle;overflow=hidden;connectable=0;fillColor=none;top=0;left=0;bottom=0;right=0;align=left;spacingLeft=6;fontSize=13;" vertex="1" parent="aKT1de0LB3l2bq885Tbr-67">
          <mxGeometry x="30" width="405" height="31" as="geometry">
            <mxRectangle width="405" height="31" as="alternateBounds" />
          </mxGeometry>
        </mxCell>
        <mxCell id="aKT1de0LB3l2bq885Tbr-90" value="" style="rounded=1;whiteSpace=wrap;html=1;" vertex="1" parent="1">
          <mxGeometry x="167.5" y="510" width="255" height="130" as="geometry" />
        </mxCell>
        <object label="accounts_authorities" email="email&#xa;test" id="aKT1de0LB3l2bq885Tbr-91">
          <mxCell style="shape=table;startSize=30;container=1;collapsible=1;childLayout=tableLayout;fixedRows=1;rowLines=0;fontStyle=1;align=center;resizeLast=1;" vertex="1" parent="1">
            <mxGeometry x="177.5" y="529.5" width="225" height="91" as="geometry">
              <mxRectangle x="85" y="80" width="80" height="30" as="alternateBounds" />
            </mxGeometry>
          </mxCell>
        </object>
        <mxCell id="aKT1de0LB3l2bq885Tbr-92" value="" style="shape=partialRectangle;collapsible=0;dropTarget=0;pointerEvents=0;fillColor=none;points=[[0,0.5],[1,0.5]];portConstraint=eastwest;top=0;left=0;right=0;bottom=1;" vertex="1" parent="aKT1de0LB3l2bq885Tbr-91">
          <mxGeometry y="30" width="225" height="30" as="geometry" />
        </mxCell>
        <mxCell id="aKT1de0LB3l2bq885Tbr-93" value="FK" style="shape=partialRectangle;overflow=hidden;connectable=0;fillColor=none;top=0;left=0;bottom=0;right=0;fontStyle=0;" vertex="1" parent="aKT1de0LB3l2bq885Tbr-92">
          <mxGeometry width="30" height="30" as="geometry">
            <mxRectangle width="30" height="30" as="alternateBounds" />
          </mxGeometry>
        </mxCell>
        <mxCell id="aKT1de0LB3l2bq885Tbr-94" value="account_id varchar NOT NULL" style="shape=partialRectangle;overflow=hidden;connectable=0;fillColor=none;top=0;left=0;bottom=0;right=0;align=left;spacingLeft=6;fontStyle=0;fontSize=13;" vertex="1" parent="aKT1de0LB3l2bq885Tbr-92">
          <mxGeometry x="30" width="195" height="30" as="geometry">
            <mxRectangle width="195" height="30" as="alternateBounds" />
          </mxGeometry>
        </mxCell>
        <mxCell id="aKT1de0LB3l2bq885Tbr-95" value="" style="shape=partialRectangle;collapsible=0;dropTarget=0;pointerEvents=0;fillColor=none;points=[[0,0.5],[1,0.5]];portConstraint=eastwest;top=0;left=0;right=0;bottom=0;" vertex="1" parent="aKT1de0LB3l2bq885Tbr-91">
          <mxGeometry y="60" width="225" height="31" as="geometry" />
        </mxCell>
        <mxCell id="aKT1de0LB3l2bq885Tbr-96" value="FK" style="shape=partialRectangle;overflow=hidden;connectable=0;fillColor=none;top=0;left=0;bottom=0;right=0;" vertex="1" parent="aKT1de0LB3l2bq885Tbr-95">
          <mxGeometry width="30" height="31" as="geometry">
            <mxRectangle width="30" height="31" as="alternateBounds" />
          </mxGeometry>
        </mxCell>
        <mxCell id="aKT1de0LB3l2bq885Tbr-97" value="authority_id varchar NOT NULL" style="shape=partialRectangle;overflow=hidden;connectable=0;fillColor=none;top=0;left=0;bottom=0;right=0;align=left;spacingLeft=6;fontSize=13;" vertex="1" parent="aKT1de0LB3l2bq885Tbr-95">
          <mxGeometry x="30" width="195" height="31" as="geometry">
            <mxRectangle width="195" height="31" as="alternateBounds" />
          </mxGeometry>
        </mxCell>
        <mxCell id="aKT1de0LB3l2bq885Tbr-132" value="" style="fontSize=12;html=1;endArrow=ERzeroToOne;startArrow=ERmandOne;rounded=0;endSize=15;startSize=15;entryX=0.5;entryY=0;entryDx=0;entryDy=0;exitX=0.5;exitY=1;exitDx=0;exitDy=0;" edge="1" parent="1" source="VL071i1AqDFCpZDAVw9u-1" target="aKT1de0LB3l2bq885Tbr-90">
          <mxGeometry width="100" height="100" relative="1" as="geometry">
            <mxPoint x="590" y="670" as="sourcePoint" />
            <mxPoint x="433" y="670" as="targetPoint" />
            <Array as="points" />
          </mxGeometry>
        </mxCell>
        <mxCell id="aKT1de0LB3l2bq885Tbr-133" value="" style="fontSize=12;html=1;endArrow=ERzeroToOne;startArrow=ERmandOne;rounded=0;endSize=15;startSize=15;entryX=0.5;entryY=1;entryDx=0;entryDy=0;exitX=0.5;exitY=0;exitDx=0;exitDy=0;" edge="1" parent="1" source="aKT1de0LB3l2bq885Tbr-62" target="aKT1de0LB3l2bq885Tbr-90">
          <mxGeometry width="100" height="100" relative="1" as="geometry">
            <mxPoint x="570" y="590" as="sourcePoint" />
            <mxPoint x="570" y="690" as="targetPoint" />
            <Array as="points" />
          </mxGeometry>
        </mxCell>
      </root>
    </mxGraphModel>
  </diagram>
</mxfile>
